<svg version="1.2" baseProfile="tiny-ps" xmlns="http://www.w3.org/2000/svg" viewBox="0 0 1500 1500" width="512" height="512">
	<title>382097-PCD1MY-460-ai</title>
	<defs>
		<linearGradient id="grd1" gradientUnits="userSpaceOnUse"  x1="552.302" y1="413.284" x2="950.717" y2="413.284">
			<stop offset="0" stop-color="#175ab0"  />
			<stop offset="1" stop-color="#2a7ac2"  />
		</linearGradient>
	</defs>
	<style>
		tspan { white-space:pre }
		.shp0 { fill: #ffffff } 
		.shp1 { fill: #ff9305 } 
		.shp2 { fill: url(#grd1) } 
	</style>
	<g >
		<path class="shp0" d="M1500 1500L0 1500L0 0L1500 0L1500 1500Z" />
	</g>
	<g >
		<g >
			<g >
				<g >
					<path class="shp1" d="M562.64 584.77C561.15 577.57 564.54 569.62 570.91 565.75C572.31 564.9 573.82 564.24 575.4 563.8C577.51 563.21 578.08 563.28 580.25 563.13L626.15 563.13C626.96 563.19 627.78 563.24 628.6 563.3C629.4 563.47 630.21 563.58 631 563.8C637.3 565.56 642.4 570.94 643.75 577.46C645.4 585.39 641.13 594.21 633.31 597.61C631.81 598.26 630.22 598.7 628.6 598.93C627.79 599.04 626.96 599.04 626.15 599.09L580.25 599.09C579.43 599.04 578.61 599.04 577.8 598.93C570.52 597.93 564.17 592.12 562.64 584.77Z" />
					<path class="shp1" d="M457.87 440.92C456.38 433.73 459.77 425.77 466.14 421.9C467.54 421.05 469.05 420.39 470.63 419.95C472.74 419.36 473.31 419.43 475.48 419.28L521.38 419.28C522.19 419.34 523.01 419.4 523.83 419.45C524.63 419.62 525.44 419.73 526.23 419.95C532.52 421.71 537.63 427.1 538.98 433.61C540.63 441.55 536.36 450.36 528.54 453.76C527.04 454.41 525.45 454.86 523.83 455.08C523.02 455.19 522.19 455.19 521.38 455.25L475.48 455.25C474.66 455.19 473.84 455.19 473.03 455.08C465.74 454.08 459.4 448.27 457.87 440.92Z" />
					<path class="shp1" d="M526.07 577.46C527.72 585.39 523.44 594.21 515.63 597.61C514.12 598.26 512.54 598.7 510.91 598.93C510.1 599.04 509.28 599.04 508.46 599.09L483.65 599.09C482.83 599.04 482.01 599.04 481.2 598.93C473.92 597.93 467.57 592.12 466.05 584.77C464.55 577.57 467.94 569.62 474.31 565.75C475.71 564.9 477.22 564.24 478.8 563.8C480.91 563.21 481.48 563.28 483.65 563.13L508.46 563.13C509.28 563.19 510.1 563.24 510.91 563.3C511.71 563.47 512.53 563.58 513.31 563.8C519.61 565.56 524.72 570.94 526.07 577.46Z" />
					<path class="shp1" d="M615.81 710.82C617.46 718.76 613.19 727.58 605.37 730.97C603.87 731.63 602.28 732.07 600.66 732.29C599.84 732.4 599.02 732.4 598.21 732.46L573.39 732.46C572.58 732.4 571.76 732.4 570.94 732.29C563.66 731.29 557.32 725.49 555.79 718.14C554.29 710.94 557.68 702.99 564.05 699.12C565.45 698.26 566.96 697.61 568.54 697.17C570.65 696.57 571.22 696.65 573.39 696.5L598.21 696.5C599.02 696.55 599.84 696.61 600.66 696.67C601.46 696.83 602.27 696.95 603.06 697.17C609.35 698.93 614.46 704.31 615.81 710.82Z" />
					<path fill-rule="evenodd" class="shp2" d="M1039.3 504.56L1039.3 647.15C1039.16 649 1039.23 649.49 1038.68 651.28C1037.85 653.96 1036.21 656.36 1034.02 658.11C1033.48 658.55 1032.87 658.9 1032.29 659.29L911.1 729.26C910.16 729.92 909.15 730.5 908.07 730.97C908.03 730.99 907.98 731.01 907.93 731.03C907.6 731.19 907.27 731.36 906.92 731.49C905.96 731.87 904.96 732.14 903.95 732.29C903.58 732.35 903.22 732.4 902.84 732.42C902.51 732.45 902.17 732.46 901.84 732.46C901.62 732.46 901.41 732.45 901.19 732.44C901.1 732.45 901 732.45 900.91 732.46L658.51 732.46C657.69 732.4 656.87 732.4 656.06 732.29C648.78 731.29 642.43 725.49 640.91 718.14C639.41 710.94 642.8 702.99 649.17 699.12C650.57 698.26 652.08 697.61 653.66 697.17C655.77 696.57 656.34 696.65 658.51 696.5L703.8 696.5C704.61 696.44 705.44 696.44 706.25 696.33C707.87 696.11 709.46 695.66 710.96 695.01C718.78 691.62 723.05 682.8 721.4 674.86C720.05 668.35 714.95 662.97 708.65 661.2C708.05 661.04 707.43 660.93 706.82 660.82C705.99 660.74 704.65 660.61 703.82 660.54L550.32 660.54C549.51 660.48 548.68 660.48 547.87 660.37C540.59 659.37 534.24 653.56 532.72 646.21C531.22 639.02 534.61 631.07 540.98 627.19C542.38 626.34 543.89 625.68 545.47 625.24C547.58 624.65 548.15 624.72 550.32 624.57L777.86 624.57C784.85 624.57 790.69 629.48 792.04 636.07C792.46 638.08 793.76 639.81 795.55 640.84L847.85 671.1C865.59 681.35 887.77 668.54 887.77 648.05L887.77 615.87C887.77 596.12 877.23 577.87 860.13 567.99L796.42 531.21C794.6 530.16 792.34 531.47 792.34 533.56L792.34 584.62C792.34 592.61 785.85 599.09 777.86 599.09L686.84 599.09C686.02 599.04 685.2 599.04 684.39 598.93C677.11 597.93 670.76 592.12 669.23 584.77C667.74 577.57 671.13 569.62 677.5 565.75C678.9 564.9 680.41 564.24 681.99 563.8C684.1 563.21 684.67 563.28 686.84 563.13L723.73 563.13C724.54 563.08 725.36 563.08 726.17 562.97C727.8 562.74 729.38 562.3 730.89 561.64C738.7 558.25 742.98 549.43 741.33 541.49C739.98 534.98 734.87 529.6 728.58 527.84C727.98 527.67 727.36 527.56 726.74 527.45C725.92 527.37 724.58 527.25 723.75 527.17L475.48 527.17C474.66 527.11 473.84 527.11 473.03 527C465.74 526 459.4 520.2 457.87 512.85C456.38 505.65 459.77 497.7 466.14 493.83C467.54 492.97 469.05 492.32 470.63 491.88C472.74 491.28 473.31 491.36 475.48 491.21L681.69 491.21C682.51 491.15 683.33 491.15 684.14 491.04C685.77 490.82 687.35 490.37 688.86 489.72C696.67 486.33 700.95 477.51 699.3 469.57C697.95 463.06 692.84 457.68 686.55 455.91C685.94 455.74 685.33 455.64 684.71 455.52C683.89 455.45 682.54 455.32 681.72 455.25L598.2 455.25C597.39 455.19 596.57 455.19 595.76 455.08C588.47 454.08 582.13 448.27 580.6 440.92C579.1 433.73 582.49 425.77 588.86 421.9C590.26 421.05 591.77 420.39 593.35 419.95C595.46 419.36 596.04 419.43 598.2 419.28L900.48 419.28C900.64 419.3 900.8 419.31 900.96 419.32C901.58 419.29 902.21 419.28 902.84 419.28C904.68 419.56 905.18 419.53 906.92 420.21C907.57 420.47 908.18 420.82 908.81 421.12L1032.29 492.42C1032.38 492.48 1032.47 492.54 1032.55 492.6C1032.77 492.73 1032.98 492.87 1033.19 493.02C1034.08 493.61 1034.57 493.96 1035.56 495.02C1037.46 497.08 1038.73 499.7 1039.15 502.47C1039.21 502.91 1039.24 503.35 1039.26 503.8C1039.27 503.94 1039.28 504.09 1039.28 504.24C1039.29 504.35 1039.29 504.45 1039.3 504.56ZM897.02 452.21L880.46 461.78C878.63 462.83 878.63 465.46 880.46 466.52L967.07 516.52C969.99 518.21 973.59 518.21 976.52 516.52L993.59 506.66C995.21 505.73 995.21 503.39 993.59 502.46L906.57 452.21C903.61 450.51 899.98 450.51 897.02 452.21ZM906.52 556.93L923.6 547.08C925.21 546.14 925.21 543.81 923.6 542.87L836.57 492.63C833.62 490.92 829.98 490.92 827.03 492.63L810.46 502.19C808.64 503.25 808.64 505.88 810.46 506.93L897.07 556.93C900 558.62 903.6 558.62 906.52 556.93ZM1011.26 540.04C1011.26 535.07 1005.87 531.96 1001.57 534.44L985.82 543.54L985.82 599.14C985.82 601.61 984.49 603.88 982.35 605.1L947.72 624.83C944.87 626.45 941.33 624.41 941.32 621.13C941.31 609.33 941.29 585.78 941.27 569.25L919.05 582.09C917.05 583.24 915.82 585.37 915.82 587.68L915.82 682.96C915.82 687.94 921.2 691.04 925.51 688.56L1008.03 640.92C1010.03 639.76 1011.26 637.63 1011.26 635.32L1011.26 540.04Z" />
				</g>
				<path fill="#045cb8" aria-label="EXPRESS"  d="M297.05 910.49L326.67 782.51L415.73 782.51L409.96 807.45L353.9 807.45L348.38 831.28L401.1 831.28L395.33 856.23L342.61 856.23L335.83 885.55L393.78 885.55L388 910.49L297.05 910.49ZM569.62 782.51L512.43 845.17L541.72 910.49L507.34 910.49L487.54 866.77L447.76 910.49L413.22 910.49L472.74 845.17L444.55 782.51L479.01 782.51L497.5 823.74L534.98 782.51L569.62 782.51ZM570.36 910.49L599.97 782.51L654.75 782.51Q679.18 782.51 689.69 793.39Q700.31 804.2 695.67 824.26Q691.01 844.4 675.37 855.29Q659.84 866.09 635.41 866.09L613.64 866.09L603.36 910.49L570.36 910.49ZM645.7 806.42L627.44 806.42L619.17 842.17L637.43 842.17Q647.03 842.17 653.33 837.54Q659.65 832.83 661.63 824.26Q663.62 815.68 659.46 811.05Q655.3 806.42 645.7 806.42ZM757.53 839.26L771.41 839.26Q781.79 839.26 787.14 835.4Q792.57 831.54 794.61 822.71Q796.64 813.97 792.97 810.2Q789.38 806.42 779.01 806.42L765.12 806.42L757.53 839.26ZM761.59 862.06L752.25 862.06L741.04 910.49L708.04 910.49L737.65 782.51L788.06 782.51Q813.35 782.51 823.13 790.99Q832.99 799.48 828.75 817.83Q825.81 830.51 817.76 838.66Q809.79 846.8 796.55 850.66Q802.96 852.2 807.01 857.69Q811.16 863.09 814.09 874.15L823.59 910.49L788.45 910.49L780.2 878.69Q777.71 869.09 773.64 865.57Q769.65 862.06 761.59 862.06ZM852.23 910.49L881.85 782.51L970.92 782.51L965.14 807.45L909.08 807.45L903.57 831.28L956.29 831.28L950.51 856.23L897.79 856.23L891.01 885.55L948.96 885.55L943.19 910.49L852.23 910.49ZM1098.92 786.54L1092.65 813.63Q1083.2 808.91 1073.73 806.51Q1064.25 804.11 1055.34 804.11Q1043.51 804.11 1037.1 807.37Q1030.68 810.63 1029.1 817.48Q1027.91 822.63 1031 825.54Q1034.21 828.37 1043.76 830.43L1057.17 833.26Q1077.52 837.54 1084.5 846.29Q1091.47 855.03 1087.74 871.15Q1082.85 892.32 1067.84 902.69Q1052.95 912.98 1027.14 912.98Q1014.97 912.98 1003.25 910.66Q991.53 908.35 980.32 903.81L986.77 875.95Q997.52 882.46 1008.14 885.8Q1018.88 889.06 1029.51 889.06Q1040.31 889.06 1046.89 885.46Q1053.46 881.86 1055.01 875.18Q1056.4 869.17 1053.21 865.92Q1050.1 862.66 1039.04 860.09L1026.92 857.26Q1008.67 853.14 1001.84 844.14Q995.09 835.14 998.62 819.88Q1003.05 800.77 1017.77 790.48Q1032.5 780.19 1055.64 780.19Q1066.19 780.19 1076.95 781.82Q1087.74 783.36 1098.92 786.54ZM1226.49 786.54L1220.22 813.63Q1210.77 808.91 1201.29 806.51Q1191.82 804.11 1182.9 804.11Q1171.07 804.11 1164.66 807.37Q1158.25 810.63 1156.66 817.48Q1155.47 822.63 1158.57 825.54Q1161.77 828.37 1171.33 830.43L1184.73 833.26Q1205.08 837.54 1212.06 846.29Q1219.04 855.03 1215.31 871.15Q1210.41 892.32 1195.41 902.69Q1180.51 912.98 1154.71 912.98Q1142.54 912.98 1130.82 910.66Q1119.09 908.35 1107.88 903.81L1114.33 875.95Q1125.08 882.46 1135.71 885.8Q1146.44 889.06 1157.07 889.06Q1167.87 889.06 1174.45 885.46Q1181.03 881.86 1182.57 875.18Q1183.96 869.17 1180.77 865.92Q1177.67 862.66 1166.61 860.09L1154.49 857.26Q1136.24 853.14 1129.41 844.14Q1122.66 835.14 1126.19 819.88Q1130.61 800.77 1145.34 790.48Q1160.06 780.19 1183.21 780.19Q1193.75 780.19 1204.52 781.82Q1215.31 783.36 1226.49 786.54Z" />
				<path fill="#ff9305" aria-label="AUCTION"  d="M449.24 1047L441.55 1028.4L401.25 1028.4L393.56 1047L372.98 1047L411.67 960.2L431.51 960.2L470.32 1047L449.24 1047ZM407.7 1013.15L435.23 1013.15L421.46 979.92L407.7 1013.15ZM540.87 1048.49Q522.27 1048.49 511.86 1038.2Q501.57 1027.9 501.57 1008.81L501.57 960.2L521.65 960.2L521.65 1008.06Q521.65 1031.38 541 1031.38Q550.42 1031.38 555.38 1025.8Q560.34 1020.09 560.34 1008.06L560.34 960.2L580.18 960.2L580.18 1008.81Q580.18 1027.9 569.77 1038.2Q559.47 1048.49 540.87 1048.49ZM666.36 1048.49Q653.09 1048.49 642.31 1042.78Q631.64 1036.96 625.44 1026.79Q619.37 1016.5 619.37 1003.6Q619.37 990.7 625.44 980.54Q631.64 970.24 642.31 964.54Q653.09 958.71 666.49 958.71Q677.77 958.71 686.82 962.68Q696 966.65 702.2 974.09L689.3 985.99Q680.5 975.82 667.48 975.82Q659.42 975.82 653.09 979.42Q646.77 982.89 643.17 989.22Q639.7 995.54 639.7 1003.6Q639.7 1011.66 643.17 1017.98Q646.77 1024.31 653.09 1027.9Q659.42 1031.38 667.48 1031.38Q680.5 1031.38 689.3 1021.08L702.2 1032.99Q696 1040.55 686.82 1044.52Q677.65 1048.49 666.36 1048.49ZM757.63 1047L757.63 976.57L729.85 976.57L729.85 960.2L805.49 960.2L805.49 976.57L777.71 976.57L777.71 1047L757.63 1047ZM841.08 1047L841.08 960.2L861.17 960.2L861.17 1047L841.08 1047ZM948.59 1048.49Q935.07 1048.49 924.16 1042.66Q913.37 1036.83 907.17 1026.66Q901.09 1016.37 901.09 1003.6Q901.09 990.83 907.17 980.66Q913.37 970.37 924.16 964.54Q935.07 958.71 948.59 958.71Q962.1 958.71 972.89 964.54Q983.68 970.37 989.88 980.66Q996.08 990.83 996.08 1003.6Q996.08 1016.37 989.88 1026.66Q983.68 1036.83 972.89 1042.66Q962.1 1048.49 948.59 1048.49ZM948.59 1031.38Q956.27 1031.38 962.47 1027.9Q968.67 1024.31 972.15 1017.98Q975.74 1011.66 975.74 1003.6Q975.74 995.54 972.15 989.22Q968.67 982.89 962.47 979.42Q956.27 975.82 948.59 975.82Q940.9 975.82 934.7 979.42Q928.5 982.89 924.9 989.22Q921.43 995.54 921.43 1003.6Q921.43 1011.66 924.9 1017.98Q928.5 1024.31 934.7 1027.9Q940.9 1031.38 948.59 1031.38ZM1095.77 960.2L1115.61 960.2L1115.61 1047L1099.12 1047L1055.85 994.3L1055.85 1047L1036.01 1047L1036.01 960.2L1052.62 960.2L1095.77 1012.9L1095.77 960.2Z" />
			</g>
		</g>
	</g>
</svg>