<svg version="1.2" baseProfile="tiny-ps" xmlns="http://www.w3.org/2000/svg" viewBox="0 0 1500 277" width="512" height="95"><title>&lt;Group&gt;</title><defs><linearGradient id="grd1" gradientUnits="userSpaceOnUse"  x1="81.7" y1="-4" x2="425.3" y2="-4"><stop offset="0" stop-color="#175ab0"  /><stop offset="1" stop-color="#2a7ac2"  /></linearGradient></defs><style>tspan { white-space:pre }.s0 { fill: #ff9305 } .s1 { fill: url(#grd1) } </style><g ><g ><path class="s0" d="m90.66 143.94c-1.29-6.21 1.63-13.06 7.13-16.4c1.21-0.73 2.51-1.3 3.87-1.68c1.82-0.51 2.31-0.45 4.18-0.58h39.58c0.7 0.05 1.41 0.1 2.11 0.14c0.69 0.14 1.39 0.24 2.07 0.43c5.43 1.52 9.83 6.16 11 11.78c1.42 6.85-2.26 14.45-9 17.38c-1.3 0.56-2.67 0.95-4.07 1.14c-0.7 0.1-1.41 0.1-2.11 0.14h-39.58c-0.7-0.05-1.41-0.05-2.11-0.14c-6.28-0.86-11.75-5.87-13.07-12.21z" /><path class="s0" d="m0.3 19.89c-1.29-6.21 1.63-13.06 7.13-16.4c1.21-0.73 2.51-1.3 3.87-1.68c1.82-0.51 2.31-0.45 4.18-0.58h39.58c0.7 0.05 1.41 0.1 2.11 0.14c0.69 0.14 1.39 0.24 2.07 0.43c5.43 1.52 9.83 6.16 11 11.78c1.42 6.85-2.26 14.45-9 17.38c-1.3 0.56-2.67 0.95-4.07 1.14c-0.7 0.1-1.41 0.1-2.11 0.14h-39.58c-0.7-0.05-1.41-0.05-2.11-0.14c-6.28-0.86-11.75-5.87-13.07-12.21z" /><path class="s0" d="m59.11 137.63c1.42 6.85-2.26 14.45-9 17.38c-1.3 0.56-2.67 0.95-4.07 1.14c-0.7 0.1-1.41 0.1-2.11 0.14h-21.4c-0.7-0.05-1.41-0.05-2.11-0.14c-6.28-0.86-11.75-5.87-13.07-12.21c-1.29-6.21 1.63-13.06 7.13-16.4c1.21-0.73 2.51-1.3 3.87-1.68c1.82-0.51 2.31-0.45 4.18-0.58h21.4c0.7 0.05 1.41 0.1 2.11 0.14c0.69 0.14 1.39 0.24 2.07 0.43c5.43 1.52 9.83 6.16 11 11.78z" /><path class="s0" d="m136.51 252.64c1.42 6.85-2.26 14.45-9 17.38c-1.3 0.56-2.67 0.95-4.07 1.14c-0.7 0.1-1.41 0.1-2.11 0.14h-21.4c-0.7-0.05-1.41-0.05-2.11-0.14c-6.28-0.86-11.75-5.87-13.07-12.21c-1.29-6.21 1.63-13.06 7.13-16.4c1.21-0.73 2.51-1.3 3.87-1.68c1.82-0.51 2.31-0.45 4.18-0.58h21.4c0.7 0.05 1.41 0.1 2.11 0.14c0.69 0.14 1.39 0.24 2.07 0.43c5.43 1.52 9.83 6.16 11 11.78z" /><path fill-rule="evenodd" class="s1" d="m501.72 74.77v122.97c-0.12 1.6-0.06 2.02-0.54 3.56c-0.71 2.31-2.13 4.38-4.02 5.89c-0.47 0.38-1 0.68-1.49 1.02l-104.51 60.34c-0.81 0.57-1.68 1.07-2.62 1.48c-0.04 0.02-0.08 0.03-0.12 0.05c-0.29 0.15-0.58 0.29-0.88 0.4c-0.83 0.32-1.69 0.55-2.56 0.69c-0.31 0.05-0.63 0.09-0.95 0.11c-0.29 0.02-0.58 0.03-0.87 0.03c-0.19 0-0.37-0.01-0.56-0.01c-0.08 0-0.16 0.01-0.25 0.01h-209.04c-0.7-0.05-1.41-0.05-2.11-0.14c-6.28-0.86-11.75-5.87-13.07-12.21c-1.29-6.21 1.63-13.06 7.13-16.4c1.21-0.73 2.51-1.3 3.87-1.68c1.82-0.51 2.31-0.45 4.18-0.58h39.06c0.7-0.05 1.41-0.05 2.11-0.14c1.4-0.19 2.77-0.58 4.07-1.14c6.74-2.93 10.43-10.53 9-17.38c-1.17-5.62-5.57-10.26-11-11.78c-0.52-0.15-1.05-0.24-1.58-0.33c-0.71-0.07-1.87-0.17-2.58-0.24h-132.38c-0.7-0.05-1.41-0.05-2.11-0.14c-6.28-0.86-11.75-5.87-13.07-12.21c-1.29-6.21 1.63-13.06 7.12-16.4c1.21-0.73 2.51-1.3 3.87-1.68c1.82-0.51 2.31-0.45 4.18-0.58h196.23c6.03 0 11.07 4.23 12.23 9.91c0.36 1.74 1.49 3.23 3.02 4.12l45.1 26.1c15.3 8.83 34.43-2.21 34.43-19.88v-27.75c0-17.04-9.09-32.78-23.84-41.3l-54.94-31.72c-1.56-0.9-3.52 0.23-3.52 2.03v44.03c0 6.89-5.59 12.48-12.48 12.48h-78.49c-0.7-0.05-1.41-0.05-2.11-0.14c-6.28-0.86-11.75-5.87-13.07-12.21c-1.29-6.21 1.63-13.06 7.13-16.4c1.21-0.73 2.51-1.3 3.87-1.68c1.82-0.51 2.31-0.45 4.18-0.58h31.81c0.7-0.05 1.41-0.05 2.11-0.14c1.4-0.19 2.77-0.58 4.07-1.14c6.74-2.93 10.43-10.53 9-17.38c-1.17-5.62-5.57-10.26-11-11.78c-0.52-0.15-1.05-0.24-1.58-0.33c-0.71-0.07-1.87-0.17-2.58-0.24h-214.11c-0.7-0.05-1.41-0.05-2.11-0.14c-6.28-0.86-11.75-5.87-13.07-12.21c-1.29-6.21 1.63-13.06 7.13-16.4c1.21-0.73 2.51-1.3 3.87-1.68c1.82-0.51 2.31-0.45 4.18-0.58h177.84c0.7-0.05 1.41-0.05 2.11-0.14c1.4-0.19 2.77-0.58 4.07-1.14c6.74-2.93 10.43-10.53 9-17.38c-1.17-5.62-5.57-10.26-11-11.78c-0.52-0.15-1.05-0.24-1.58-0.33c-0.71-0.07-1.87-0.17-2.58-0.24h-72.02c-0.7-0.05-1.41-0.05-2.11-0.14c-6.28-0.86-11.75-5.87-13.07-12.21c-1.29-6.21 1.63-13.06 7.13-16.4c1.21-0.73 2.51-1.3 3.87-1.68c1.82-0.51 2.31-0.45 4.18-0.58h260.68c0.14 0.01 0.28 0.02 0.41 0.03c0.54-0.02 1.08-0.03 1.63-0.03c1.58 0.24 2.01 0.21 3.51 0.8c0.56 0.22 1.09 0.52 1.63 0.78l106.49 61.48c0.08 0.05 0.15 0.1 0.23 0.15c0.19 0.12 0.37 0.24 0.55 0.37c0.76 0.51 1.19 0.81 2.04 1.73c1.64 1.77 2.73 4.03 3.09 6.42c0.06 0.38 0.08 0.76 0.1 1.14c0.01 0.13 0.02 0.25 0.02 0.38c0.01 0.09 0.01 0.19 0.02 0.28zm-122.7-45.14l-14.29 8.25c-1.57 0.91-1.57 3.18 0 4.09l74.69 43.12c2.52 1.46 5.63 1.46 8.15 0l14.73-8.5c1.4-0.81 1.4-2.82 0-3.63l-75.05-43.33c-2.55-1.47-5.68-1.47-8.23 0zm8.19 90.31l14.73-8.5c1.4-0.81 1.4-2.82 0-3.63l-75.05-43.33c-2.55-1.47-5.68-1.47-8.23 0l-14.29 8.25c-1.57 0.91-1.57 3.18 0 4.09l74.69 43.12c2.52 1.46 5.63 1.46 8.15 0zm90.33-14.57c0-4.29-4.64-6.97-8.36-4.82l-13.58 7.84v47.95c0 2.12-1.14 4.08-2.99 5.14l-29.87 17.01c-2.46 1.4-5.51-0.36-5.52-3.19c-0.01-10.18-0.03-30.48-0.04-44.73l-19.17 11.07c-1.72 1-2.79 2.83-2.79 4.82v82.17c0 4.29 4.64 6.97 8.36 4.82l71.16-41.09c1.72-1 2.79-2.83 2.79-4.82v-82.17z" /></g><path fill="#045cb8" aria-label="EXPRESS"  d="m539.25 134.8l30.61-132.23l92.05 0l-5.97 25.77l-57.94 0l-5.7 24.62l54.48 0l-5.97 25.77l-54.48 0l-7.01 30.29l59.89 0l-5.97 25.77l-93.99 0zm281.68-132.23l-59.1 64.74l30.27 67.49l-35.52 0l-20.46-45.17l-41.11 45.17h-35.7l61.51-67.49l-29.13-64.74h35.61l19.11 42.6l38.74-42.6l35.79 0zm0.76 132.23l30.61-132.23h56.61q25.25 0 36.11 11.25q10.97 11.16 6.17 31.88q-4.82 20.81-20.98 32.06q-16.05 11.16-41.3 11.16h-22.5l-10.62 45.88h-34.11zm77.86-107.52h-18.87l-8.55 36.93h18.87q9.92 0 16.43-4.78q6.53-4.87 8.58-13.73q2.05-8.86-2.25-13.64q-4.3-4.78-14.22-4.78zm115.56 33.92h14.35q10.72 0 16.25-3.99q5.62-3.99 7.73-13.11q2.09-9.03-1.7-12.93q-3.7-3.9-14.42-3.9h-14.35l-7.85 33.92zm4.2 23.56h-9.66l-11.58 50.04h-34.11l30.61-132.23h52.09q26.13 0 36.24 8.77q10.2 8.77 5.81 27.72q-3.03 13.11-11.36 21.52q-8.24 8.41-21.92 12.4q6.63 1.59 10.81 7.26q4.29 5.58 7.32 17.01l9.82 37.55h-36.32l-8.52-32.86q-2.58-9.92-6.79-13.55q-4.12-3.63-12.45-3.63zm93.67 50.04l30.61-132.23h92.05l-5.97 25.77l-57.94 0l-5.7 24.62l54.48 0l-5.97 25.77l-54.48 0l-7.01 30.29l59.89 0l-5.97 25.77h-93.99zm254.94-128.07l-6.48 27.99q-9.77-4.87-19.56-7.35q-9.79-2.48-19-2.48q-12.23 0-18.85 3.37q-6.63 3.37-8.27 10.45q-1.23 5.31 1.97 8.33q3.31 2.92 13.18 5.05l13.85 2.92q21.03 4.43 28.25 13.46q7.21 9.03 3.36 25.68q-5.06 21.88-20.57 32.59q-15.39 10.63-42.06 10.63q-12.58 0-24.69-2.39q-12.11-2.39-23.7-7.09l6.66-28.78q11.11 6.73 22.09 10.19q11.09 3.37 22.08 3.37q11.16 0 17.96-3.72q6.8-3.72 8.4-10.63q1.43-6.2-1.86-9.57q-3.21-3.37-14.64-6.02l-12.52-2.92q-18.86-4.25-25.92-13.55q-6.97-9.3-3.32-25.06q4.57-19.75 19.79-30.38q15.22-10.63 39.14-10.63q10.9 0 22.02 1.68q11.15 1.59 22.7 4.87zm131.83 0l-6.48 27.99q-9.77-4.87-19.56-7.35q-9.79-2.48-19-2.48q-12.23 0-18.85 3.37q-6.63 3.37-8.27 10.45q-1.23 5.31 1.97 8.33q3.31 2.92 13.18 5.05l13.85 2.92q21.03 4.43 28.25 13.46q7.21 9.03 3.36 25.68q-5.06 21.88-20.57 32.59q-15.39 10.63-42.06 10.63q-12.58 0-24.69-2.39q-12.11-2.39-23.7-7.09l6.66-28.78q11.11 6.73 22.09 10.19q11.09 3.37 22.08 3.37q11.16 0 17.96-3.72q6.8-3.72 8.4-10.63q1.43-6.2-1.86-9.57q-3.21-3.37-14.64-6.02l-12.52-2.92q-18.86-4.25-25.92-13.55q-6.97-9.3-3.32-25.06q4.57-19.75 19.79-30.38q15.22-10.63 39.14-10.63q10.9 0 22.02 1.68q11.15 1.59 22.7 4.87z" /><path fill="#ff9305" aria-label="AUCTION"  d="m614.77 275l22.73 0l-24.13-98.48l-22.45 0l-63.55 98.48l24.27 0l12.77-21.1l45.73 0zm-39.84-38.41l23.15-37.99l8.28 37.99zm131.03 40.1c27.64 0 44.33-14.91 50.22-44.03l11.08-56.13l-22.31 0l-10.94 54.73c-3.79 18.43-11.78 26.03-25.53 26.03c-12.2 0-18.94-5.77-18.94-17.73c0-2.53 0.28-5.21 0.84-8.3l10.94-54.73l-22.87 0l-10.94 55.15c-0.7 3.66-1.12 7.18-1.12 10.55c0 21.24 14.87 34.47 39.56 34.47zm129.9 0c16.83 0 31.14-4.92 41.52-17.02l-13.47-13.79c-7.29 7.88-16.13 11.4-26.09 11.4c-17.68 0-27.5-9.85-27.5-24.76c0-21.24 14.31-38.27 36.47-38.27c10.8 0 18.66 4.08 23.71 11.54l16.41-13.51c-7.01-11.25-21.18-17.45-38.58-17.45c-36.47 0-61.02 25.46-61.02 59.09c0 25.32 18.52 42.77 48.54 42.77zm84.59-1.69l22.73 0l15.99-79.91l31.28 0l3.79-18.57l-85.57 0l-3.79 18.57l31.42 0zm80.38 0l22.87 0l19.64-98.48l-22.87 0zm110.97 1.69c36.19 0 60.74-25.46 60.74-59.09c0-25.32-17.96-42.77-47.84-42.77c-36.19 0-60.74 25.46-60.74 59.09c0 25.32 17.96 42.77 47.84 42.77zm1.96-19.41c-17.26 0-26.79-9.99-26.79-24.62c0-20.82 13.61-38.41 35.77-38.41c17.26 0 26.79 9.99 26.79 24.62c0 20.82-13.61 38.41-35.77 38.41zm166.8-80.75l-12.2 61.76l-36.61-61.76l-18.8 0l-19.64 98.48l22.45 0l12.35-61.62l36.61 61.62l18.66 0l19.64-98.48z" /></g></svg>